HIERARCHY
ROOT hip
{
  OFFSET 0 0 0
  CHANNELS 6 Xposition Yposition Zposition Zrotation Yrotation Xrotation
  JOINT abdomen
  {
    OFFSET 0 20.6881 -0.73152
    CHANNELS 3 Zrotation Xrotation Yrotation
    JOINT chest
    {
      OFFSET 0 11.7043 -0.48768
      CHANNELS 3 Zrotation Xrotation Yrotation
      JOINT neck
      {
        OFFSET 0 22.1894 -2.19456
        CHANNELS 3 Zrotation Xrotation Yrotation
        JOINT head
        {
          OFFSET -0.24384 7.07133 1.2192
          CHANNELS 3 Zrotation Xrotation Yrotation
          JOINT leftEye
          {
            OFFSET 4.14528 8.04674 8.04672
            CHANNELS 3 Zrotation Xrotation Yrotation
            End Site
            {
              OFFSET 1 0 0
            }
          }
          JOINT rightEye
          {
            OFFSET -3.6576 8.04674 8.04672
            CHANNELS 3 Zrotation Xrotation Yrotation
            End Site
            {
              OFFSET 1 0 0
            }
          }
        }
      }
      JOINT rCollar
      {
        OFFSET -2.68224 19.2634 -4.8768
        CHANNELS 3 Zrotation Xrotation Yrotation
        JOINT rShldr
        {
          OFFSET -8.77824 -1.95073 1.46304
          CHANNELS 3 Zrotation Xrotation Yrotation
          JOINT rForeArm
          {
            OFFSET -28.1742 -1.7115 0.48768
            CHANNELS 3 Zrotation Xrotation Yrotation
            JOINT rHand
            {
              OFFSET -22.5879 0.773209 7.07136
              CHANNELS 3 Zrotation Xrotation Yrotation
              JOINT rThumb1
              {
                OFFSET -1.2192 -0.487915 3.41376
                CHANNELS 3 Zrotation Xrotation Yrotation
                JOINT rThumb2
                {
                  OFFSET -3.37035 -0.52449 3.41376
                  CHANNELS 3 Zrotation Xrotation Yrotation
                  End Site
                  {
                    OFFSET -1.78271 -1.18214 1.43049
                  }
                }
              }
              JOINT rIndex1
              {
                OFFSET -7.75947 0.938293 5.60832
                CHANNELS 3 Zrotation Xrotation Yrotation
                JOINT rIndex2
                {
                  OFFSET -2.54057 -0.884171 1.56538
                  CHANNELS 3 Zrotation Xrotation Yrotation
                  End Site
                  {
                    OFFSET -1.62519 -0.234802 1.16502
                  }
                }
              }
              JOINT rMid1
              {
                OFFSET -8.24714 1.18213 3.41376
                CHANNELS 3 Zrotation Xrotation Yrotation
                JOINT rMid2
                {
                  OFFSET -3.10165 -0.590103 1.0647
                  CHANNELS 3 Zrotation Xrotation Yrotation
                  End Site
                  {
                    OFFSET -2.48547 -0.328903 0.83742
                  }
                }
              }
              JOINT rRing1
              {
                OFFSET -8.82822 0.546677 1.51678
                CHANNELS 3 Zrotation Xrotation Yrotation
                JOINT rRing2
                {
                  OFFSET -2.60934 -0.819778 -0.0198488
                  CHANNELS 3 Zrotation Xrotation Yrotation
                  End Site
                  {
                    OFFSET -2.33842 -0.294052 0.168128
                  }
                }
              }
              JOINT rPinky1
              {
                OFFSET -8.27202 -0.0477905 -0.4584
                CHANNELS 3 Zrotation Xrotation Yrotation
                JOINT rPinky2
                {
                  OFFSET -1.82734 -0.647385 -0.700984
                  CHANNELS 3 Zrotation Xrotation Yrotation
                  End Site
                  {
                    OFFSET -1.69225 -0.51767 -0.607171
                  }
                }
              }
            }
          }
        }
      }
      JOINT lCollar
      {
        OFFSET 2.68224 19.2634 -4.8768
        CHANNELS 3 Zrotation Xrotation Yrotation
        JOINT lShldr
        {
          OFFSET 8.77824 -1.95073 1.46304
          CHANNELS 3 Zrotation Xrotation Yrotation
          JOINT lForeArm
          {
            OFFSET 28.1742 -1.7115 0.48768
            CHANNELS 3 Zrotation Xrotation Yrotation
            JOINT lHand
            {
              OFFSET 22.5879 0.773209 7.07136
              CHANNELS 3 Zrotation Xrotation Yrotation
              JOINT lThumb1
              {
                OFFSET 1.2192 -0.487915 3.41376
                CHANNELS 3 Zrotation Xrotation Yrotation
                JOINT lThumb2
                {
                  OFFSET 3.37035 -0.52449 3.41376
                  CHANNELS 3 Zrotation Xrotation Yrotation
                  End Site
                  {
                    OFFSET 1.78271 -1.18214 1.43049
                  }
                }
              }
              JOINT lIndex1
              {
                OFFSET 7.75947 0.938293 5.60832
                CHANNELS 3 Zrotation Xrotation Yrotation
                JOINT lIndex2
                {
                  OFFSET 2.54057 -0.884171 1.56538
                  CHANNELS 3 Zrotation Xrotation Yrotation
                  End Site
                  {
                    OFFSET 1.62519 -0.234802 1.16502
                  }
                }
              }
              JOINT lMid1
              {
                OFFSET 8.24714 1.18213 3.41376
                CHANNELS 3 Zrotation Xrotation Yrotation
                JOINT lMid2
                {
                  OFFSET 3.10165 -0.590103 1.0647
                  CHANNELS 3 Zrotation Xrotation Yrotation
                  End Site
                  {
                    OFFSET 2.48547 -0.328903 0.83742
                  }
                }
              }
              JOINT lRing1
              {
                OFFSET 8.82822 0.546677 1.51678
                CHANNELS 3 Zrotation Xrotation Yrotation
                JOINT lRing2
                {
                  OFFSET 2.60934 -0.819778 -0.0198488
                  CHANNELS 3 Zrotation Xrotation Yrotation
                  End Site
                  {
                    OFFSET 2.33842 -0.294052 0.168128
                  }
                }
              }
              JOINT lPinky1
              {
                OFFSET 8.27202 -0.0477905 -0.4584
                CHANNELS 3 Zrotation Xrotation Yrotation
                JOINT lPinky2
                {
                  OFFSET 1.82734 -0.647385 -0.700984
                  CHANNELS 3 Zrotation Xrotation Yrotation
                  End Site
                  {
                    OFFSET 1.69225 -0.51767 -0.607171
                  }
                }
              }
            }
          }
        }
      }
    }
  }
  JOINT rButtock
  {
    OFFSET -8.77824 4.35084 1.2192
    CHANNELS 3 Zrotation Xrotation Yrotation
    JOINT rThigh
    {
      OFFSET 0 -1.70687 -2.19456
      CHANNELS 3 Zrotation Xrotation Yrotation
      JOINT rShin
      {
        OFFSET 0 -36.8199 0.73152
        CHANNELS 3 Zrotation Xrotation Yrotation
        JOINT rFoot
        {
          OFFSET 0.73152 -45.1104 -5.12064
          CHANNELS 3 Zrotation Xrotation Yrotation
          End Site
          {
            OFFSET -1.1221 -3.69964 12.103
          }
        }
      }
    }
  }
  JOINT lButtock
  {
    OFFSET 8.77824 4.35084 1.2192
    CHANNELS 3 Zrotation Xrotation Yrotation
    JOINT lThigh
    {
      OFFSET 0 -1.70687 -2.19456
      CHANNELS 3 Zrotation Xrotation Yrotation
      JOINT lShin
      {
        OFFSET 0 -36.8199 0.73152
        CHANNELS 3 Zrotation Xrotation Yrotation
        JOINT lFoot
        {
          OFFSET -0.73152 -45.1104 -5.12064
          CHANNELS 3 Zrotation Xrotation Yrotation
          End Site
          {
            OFFSET 1.1221 -3.69964 12.103
          }
        }
      }
    }
  }
}
MOTION
Frames:	7
Frame Time:	0.00833333
43.6992 106.893 29.6089 -177.433 61.5986 -157.936 6.52476 -19.5743 3.78437 -2.37172 1.47596 1.06997 -3.90942 -4.11909 -5.62436 10.9018 12.4429 -9.54342 -0.0 0.0 0.0 -0.0 0.0 0.0 7.90959e-14 1.34327e-13 5.41688e-14 72.169 16.9107 -4.07088 -14.2252 -7.13768 26.0082 -0.0881974 -8.44367 -1.19542 -1.24837e-09 -2.7197e-10 1.93405e-09 -2.16887e-09 -4.71687e-10 3.33981e-09 -1.24837e-09 -2.71969e-10 1.93405e-09 7.73091 5.47488 0.417314 -1.24837e-09 -2.71971e-10 1.93405e-09 2.90554 0.965183 0.102902 -1.24836e-09 -2.7197e-10 1.93405e-09 10.2786 0.731801 0.0259123 -1.24838e-09 -2.7197e-10 1.93405e-09 2.22167 -0.733487 -0.20892 7.90145e-14 1.34331e-13 5.39669e-14 -80.613 20.0805 11.9752 13.1386 -6.28002 -23.8365 2.09698 -37.4582 6.1811 -7.88687e-10 -2.05011e-10 4.35641e-10 -1.37987e-09 -3.81604e-10 7.3721e-10 -7.88686e-10 -2.05007e-10 4.35652e-10 -7.73091 5.47488 -0.417314 -7.88681e-10 -2.05007e-10 4.35636e-10 -2.90554 0.965183 -0.102902 -7.8869e-10 -2.05004e-10 4.35637e-10 -10.2786 0.731801 -0.0259123 -7.88679e-10 -2.04999e-10 4.35631e-10 -2.22167 -0.733487 0.20892 -2.03217e-16 0.0 -3.88251e-19 12.869 -38.1739 14.3475 -0.260698 36.9751 0.842319 -5.41368 -10.1289 -20.1102 2.03217e-16 0.0 3.88251e-19 2.26789 -48.5847 8.94149 0.606011 51.764 -1.22089 2.10416 -1.62576 17.599
43.7311 106.913 29.5525 -177.445 62.4034 -157.967 6.74428 -19.3672 3.69984 -2.41336 1.4761 1.03169 -3.85933 -4.11366 -5.64531 11.0406 12.5525 -9.62426 -0.0 0.0 0.0 -0.0 0.0 0.0 1.48883e-13 3.31428e-13 -1.83776e-13 72.0046 16.5967 -4.09082 -14.276 -7.17936 26.1108 -0.0957463 -8.79667 -1.24618 -1.12994e-09 -3.14902e-11 1.78172e-09 -1.95963e-09 -5.47642e-11 3.07535e-09 -1.12993e-09 -3.149e-11 1.78171e-09 7.73091 5.47488 0.417314 -1.12994e-09 -3.1492e-11 1.78172e-09 2.90554 0.965183 0.102902 -1.12993e-09 -3.14922e-11 1.78172e-09 10.2786 0.731801 0.0259123 -1.12994e-09 -3.14916e-11 1.78172e-09 2.22167 -0.733487 -0.20892 1.48801e-13 3.31432e-13 -1.83979e-13 -80.7093 20.4884 12.0624 13.0477 -6.21111 -23.6569 2.01173 -36.8239 6.03996 -2.36109e-09 -1.71328e-09 -3.0168e-10 -4.06986e-09 -2.99457e-09 -5.81248e-10 -2.36109e-09 -1.71328e-09 -3.01666e-10 -7.73091 5.47488 -0.417314 -2.36108e-09 -1.71328e-09 -3.01686e-10 -2.90554 0.965183 -0.102902 -2.36109e-09 -1.71327e-09 -3.01683e-10 -10.2786 0.731801 -0.0259123 -2.36108e-09 -1.71327e-09 -3.01686e-10 -2.22167 -0.733487 0.20892 -2.03217e-16 0.0 -3.88251e-19 12.8636 -38.0848 14.6393 -0.261132 36.9337 0.833175 -5.28566 -10.1224 -19.6493 2.03217e-16 0.0 3.88251e-19 1.79326 -48.6872 7.89854 0.620243 52.1303 -1.23653 2.23948 -3.2257 15.3441
43.7571 106.938 29.4889 -177.508 63.2221 -158.038 6.90912 -19.1731 3.61511 -2.4962 1.50536 0.996403 -3.78348 -4.11138 -5.66643 11.2053 12.6422 -9.71577 -0.0 0.0 0.0 -0.0 0.0 0.0 1.80125e-13 4.54419e-13 -3.27498e-13 71.8847 16.2989 -4.08136 -14.3204 -7.21592 26.2009 -0.102724 -9.10307 -1.29034 -9.87736e-10 1.97369e-10 1.26538e-09 -1.70884e-09 3.42454e-10 2.18188e-09 -9.87729e-10 1.97369e-10 1.26538e-09 7.73091 5.47488 0.417314 -9.87735e-10 1.97367e-10 1.26538e-09 2.90554 0.965183 0.102902 -9.87728e-10 1.97366e-10 1.26538e-09 10.2786 0.731801 0.0259123 -9.87743e-10 1.97367e-10 1.26539e-09 2.22167 -0.733487 -0.20892 1.80035e-13 4.54424e-13 -3.27697e-13 -80.7391 20.9313 12.1195 12.9569 -6.14278 -23.4781 1.94581 -36.3136 5.92858 -3.12187e-09 -2.42877e-09 -6.19966e-10 -5.37072e-09 -4.23318e-09 -1.15384e-09 -3.12187e-09 -2.42877e-09 -6.19951e-10 -7.73091 5.47488 -0.417314 -3.12186e-09 -2.42877e-09 -6.19973e-10 -2.90554 0.965183 -0.102902 -3.12187e-09 -2.42876e-09 -6.19968e-10 -10.2786 0.731801 -0.0259123 -3.12186e-09 -2.42875e-09 -6.1997e-10 -2.22167 -0.733487 0.20892 -2.03217e-16 0.0 -3.88251e-19 12.8371 -38.0085 14.9656 -0.261903 36.9058 0.824777 -5.16579 -10.1116 -19.2137 2.03217e-16 0.0 3.88251e-19 1.21916 -48.7609 6.72037 0.630341 52.3764 -1.24516 2.24967 -4.70244 13.2257
43.7789 106.964 29.4191 -177.623 64.0552 -158.151 7.00852 -18.9927 3.53564 -2.64569 1.57794 0.966273 -3.66252 -4.11899 -5.69003 11.4075 12.7029 -9.82958 -0.0 0.0 0.0 -0.0 0.0 0.0 1.5367e-13 4.83779e-13 -3.23148e-13 71.8349 16.0008 -4.03161 -14.3583 -7.24717 26.2778 -0.108903 -9.36508 -1.32816 -8.56219e-10 3.76538e-10 4.41693e-11 -1.4751e-09 6.54595e-10 6.98189e-11 -8.56211e-10 3.76537e-10 4.41653e-11 7.73091 5.47488 0.417314 -8.56218e-10 3.76536e-10 4.41639e-11 2.90554 0.965183 0.102902 -8.56209e-10 3.76535e-10 4.41668e-11 10.2786 0.731801 0.0259123 -8.56225e-10 3.76535e-10 4.41717e-11 2.22167 -0.733487 -0.20892 1.53553e-13 4.83783e-13 -3.23338e-13 -80.6656 21.433 12.1252 12.8639 -6.07328 -23.2948 1.89967 -35.947 5.84961 -2.58483e-09 -1.81528e-09 -1.67484e-10 -4.45239e-09 -3.16888e-09 -3.60184e-10 -2.58483e-09 -1.81528e-09 -1.67469e-10 -7.73091 5.47488 -0.417314 -2.58482e-09 -1.81528e-09 -1.67489e-10 -2.90554 0.965183 -0.102902 -2.58483e-09 -1.81527e-09 -1.67485e-10 -10.2786 0.731801 -0.0259123 -2.58482e-09 -1.81526e-09 -1.67485e-10 -2.22167 -0.733487 0.20892 -2.03217e-16 0.0 -3.88251e-19 12.7837 -37.9466 15.3324 -0.263088 36.8965 0.81738 -5.05633 -10.092 -18.815 2.03217e-16 0.0 3.88251e-19 0.533236 -48.7972 5.39972 0.636047 52.496 -1.2459 2.15324 -6.02881 11.2037
43.7973 106.991 29.3429 -177.793 64.8992 -158.31 7.05022 -18.8193 3.45577 -2.84382 1.68265 0.939253 -3.50427 -4.13206 -5.7174 11.6328 12.7328 -9.96482 -0.0 0.0 0.0 -0.0 0.0 0.0 9.30464e-14 4.61613e-13 -2.26313e-13 71.8356 15.7108 -3.94926 -14.3912 -7.27438 26.3443 -0.114169 -9.58825 -1.3604 -7.51008e-10 5.41416e-10 -1.63179e-09 -1.2856e-09 9.42754e-10 -2.82842e-09 -7.50999e-10 5.41415e-10 -1.63179e-09 7.73091 5.47488 0.417314 -7.51007e-10 5.41414e-10 -1.6318e-09 2.90554 0.965183 0.102902 -7.50996e-10 5.41413e-10 -1.6318e-09 10.2786 0.731801 0.0259123 -7.51012e-10 5.41413e-10 -1.63179e-09 2.22167 -0.733487 -0.20892 9.28917e-14 4.61617e-13 -2.2649e-13 -80.5117 21.9789 12.0904 12.7687 -6.00265 -23.1077 1.8675 -35.6918 5.79473 -1.26818e-09 -3.898e-10 7.86941e-10 -2.20196e-09 -6.97429e-10 1.32108e-09 -1.26818e-09 -3.89793e-10 7.86954e-10 -7.73091 5.47488 -0.417314 -1.26817e-09 -3.89795e-10 7.86938e-10 -2.90554 0.965183 -0.102902 -1.26818e-09 -3.89788e-10 7.8694e-10 -10.2786 0.731801 -0.0259123 -1.26818e-09 -3.89783e-10 7.86941e-10 -2.22167 -0.733487 0.20892 -2.03217e-16 0.0 -3.88251e-19 12.7023 -37.8939 15.7275 -0.264544 36.8973 0.810691 -4.95545 -10.0653 -18.4438 2.03217e-16 0.0 3.88251e-19 -0.26075 -48.7853 3.93264 0.637394 52.4988 -1.23955 1.96431 -7.3092 9.17992
43.8141 107.018 29.2618 -178.002 65.7572 -158.5 7.05249 -18.6568 3.36741 -3.04669 1.79596 0.911979 -3.34645 -4.13873 -5.74237 11.8654 12.7538 -10.0959 -0.0 0.0 0.0 -0.0 0.0 0.0 2.37001e-14 4.00267e-13 -1.16459e-13 71.8456 15.4599 -3.85348 -14.4186 -7.29716 26.4 -0.118352 -9.76346 -1.38573 -5.82878e-10 7.5111e-10 -3.18312e-09 -9.88114e-10 1.3082e-09 -5.5106e-09 -5.82868e-10 7.51109e-10 -3.18312e-09 7.73091 5.47488 0.417314 -5.82876e-10 7.51109e-10 -3.18313e-09 2.90554 0.965183 0.102902 -5.82864e-10 7.51108e-10 -3.18313e-09 10.2786 0.731801 0.0259123 -5.8288e-10 7.51108e-10 -3.18313e-09 2.22167 -0.733487 -0.20892 2.35128e-14 4.00272e-13 -1.16622e-13 -80.34 22.5269 12.0552 12.6769 -5.93483 -22.9275 1.84671 -35.528 5.75947 1.22761e-10 1.02898e-09 1.65352e-09 1.78271e-10 1.76372e-09 2.85307e-09 1.22765e-10 1.02899e-09 1.65354e-09 -7.73091 5.47488 -0.417314 1.22765e-10 1.02898e-09 1.65352e-09 -2.90554 0.965183 -0.102902 1.22758e-10 1.02899e-09 1.65353e-09 -10.2786 0.731801 -0.0259123 1.22761e-10 1.02899e-09 1.65353e-09 -2.22167 -0.733487 0.20892 -2.03217e-16 0.0 -3.88251e-19 12.6082 -37.8494 16.1471 -0.266175 36.9026 0.804337 -4.85961 -10.0403 -18.0809 2.03217e-16 0.0 3.88251e-19 -1.12677 -48.7345 2.34639 0.634391 52.392 -1.22694 1.71576 -8.48749 7.30158
43.8359 107.046 29.1771 -178.251 66.6349 -158.718 7.03362 -18.5085 3.26245 -3.21044 1.89437 0.881084 -3.22675 -4.12714 -5.75878 12.0894 12.7877 -10.1972 -0.0 0.0 0.0 -0.0 0.0 0.0 -2.89247e-14 3.12089e-13 -7.30534e-14 71.8229 15.2796 -3.76323 -14.4402 -7.31514 26.4439 -0.121278 -9.8816 -1.40284 -2.62601e-10 1.06473e-09 -4.03044e-09 -4.30391e-10 1.85218e-09 -6.97449e-09 -2.62592e-10 1.06473e-09 -4.03045e-09 7.73091 5.47488 0.417314 -2.62599e-10 1.06473e-09 -4.03046e-09 2.90554 0.965183 0.102902 -2.62587e-10 1.06473e-09 -4.03046e-09 10.2786 0.731801 0.0259123 -2.62602e-10 1.06473e-09 -4.03046e-09 2.22167 -0.733487 -0.20892 -2.91224e-14 3.12093e-13 -7.32025e-14 -80.2152 23.0346 12.0599 12.5939 -5.87384 -22.7653 1.83509 -35.4355 5.73965 8.82674e-10 1.62236e-09 1.84249e-09 1.48598e-09 2.79711e-09 3.19887e-09 8.82678e-10 1.62237e-09 1.8425e-09 -7.73091 5.47488 -0.417314 8.82676e-10 1.62236e-09 1.84249e-09 -2.90554 0.965183 -0.102902 8.8267e-10 1.62237e-09 1.84249e-09 -10.2786 0.731801 -0.0259123 8.82672e-10 1.62237e-09 1.84249e-09 -2.22167 -0.733487 0.20892 -2.03217e-16 0.0 -3.88251e-19 12.5165 -37.8124 16.5875 -0.267889 36.9068 0.797946 -4.76508 -10.0262 -17.7073 2.03217e-16 0.0 3.88251e-19 -2.03032 -48.6552 0.667209 0.627151 52.1825 -1.20899 1.45836 -9.50907 5.71883
